<svg xmlns="http://www.w3.org/2000/svg" xmlns:xlink="http://www.w3.org/1999/xlink" width="1080" zoomAndPan="magnify" viewBox="0 0 810 809.999993" height="1080" preserveAspectRatio="xMidYMid meet" version="1.0"><defs><clipPath id="5331631adc"><path d="M 38.367188 38.367188 L 771.867188 38.367188 L 771.867188 771.867188 L 38.367188 771.867188 Z M 38.367188 38.367188 " clip-rule="nonzero"/></clipPath><clipPath id="67fbf8b891"><path d="M 162 215.945312 L 645 215.945312 L 645 592.269531 L 162 592.269531 Z M 162 215.945312 " clip-rule="nonzero"/></clipPath></defs><rect x="-81" width="972" fill="#ffffff" y="-80.999999" height="971.999992" fill-opacity="1"/><rect x="-81" width="972" fill="#ffffff" y="-80.999999" height="971.999992" fill-opacity="1"/><g clip-path="url(#5331631adc)"><path fill="#ef8fab" d="M 405.117188 38.367188 C 202.566406 38.367188 38.367188 202.566406 38.367188 405.117188 C 38.367188 607.667969 202.566406 771.867188 405.117188 771.867188 C 607.667969 771.867188 771.867188 607.667969 771.867188 405.117188 C 771.867188 202.566406 607.667969 38.367188 405.117188 38.367188 " fill-opacity="1" fill-rule="nonzero"/></g><g clip-path="url(#67fbf8b891)"><path fill="#ffffff" d="M 610.105469 329.636719 C 608.132812 314.996094 607.867188 289.730469 621.496094 281.269531 C 621.726562 281.117188 621.914062 280.890625 622.144531 280.703125 C 633.269531 277.136719 640.976562 272.128906 634.9375 265.414062 L 470.609375 215.945312 L 204.5625 252.894531 C 204.5625 252.894531 174.113281 257.257812 176.808594 304.5625 C 178.289062 330.285156 186.375 342.917969 193.4375 349.136719 L 171.605469 355.738281 C 165.570312 362.453125 173.277344 367.421875 184.402344 370.988281 C 184.628906 371.179688 184.78125 371.40625 185.046875 371.558594 C 198.640625 380.054688 198.375 405.28125 196.4375 419.964844 C 147.535156 433.8125 165.074219 438.363281 165.074219 438.363281 L 175.820312 440.941406 C 168.265625 447.769531 160.746094 460.667969 162.191406 485.175781 C 164.886719 532.480469 189.90625 535.746094 189.90625 535.746094 L 364.03125 592.269531 L 626.8125 528.6875 C 626.8125 528.6875 644.355469 524.136719 595.453125 510.25 C 593.476562 495.644531 593.210938 470.378906 606.84375 461.882812 C 607.109375 461.730469 607.257812 461.503906 607.488281 461.3125 C 618.613281 457.75 626.320312 452.777344 620.28125 446.0625 L 608.855469 442.613281 C 616.484375 438.019531 627.914062 426.035156 629.699219 394.851562 C 630.953125 373.453125 625.332031 360.898438 618.878906 353.5 L 641.429688 348.039062 C 641.429688 348.039062 659.011719 343.523438 610.105469 329.636719 Z M 390.304688 329.03125 L 434.464844 319.964844 L 583.832031 289.273438 L 606.082031 284.722656 C 598.945312 297.734375 599.25 315.527344 600.425781 326.945312 C 600.691406 329.523438 600.996094 331.875 601.261719 333.699219 L 576.921875 339.730469 L 388.445312 386.582031 Z M 200.460938 375.046875 L 222.710938 379.601562 L 366.121094 409.078125 L 378.648438 411.65625 L 416.238281 419.355469 L 418.0625 476.90625 L 224.34375 428.765625 L 205.246094 424.023438 C 205.550781 422.203125 205.816406 419.851562 206.121094 417.269531 C 207.257812 405.851562 207.5625 388.058594 200.460938 375.046875 Z M 191.804688 302.285156 C 191.539062 289.691406 193.78125 280.585938 198.335938 275.960938 C 201.222656 273 204.640625 272.394531 206.953125 272.394531 C 208.207031 272.394531 209.082031 272.582031 209.15625 272.582031 L 323.785156 309.910156 L 380.964844 328.539062 L 379.105469 386.503906 L 218.648438 341.550781 L 210.183594 339.199219 C 209.878906 339.121094 209.421875 339.046875 209.121094 339.046875 C 208.4375 338.972656 192.601562 337.527344 191.804688 302.285156 Z M 364.449219 567.15625 L 195.527344 519.847656 C 195.222656 519.734375 194.804688 519.699219 194.464844 519.660156 C 193.78125 519.621094 177.910156 518.179688 177.148438 482.9375 C 176.882812 470.34375 179.125 461.238281 183.679688 456.609375 C 186.566406 453.652344 189.945312 453.042969 192.300781 453.042969 C 193.515625 453.042969 194.425781 453.234375 194.464844 453.234375 C 194.464844 453.234375 194.5 453.234375 194.464844 453.234375 L 366.308594 509.1875 Z M 585.769531 507.597656 C 586.035156 510.175781 586.339844 512.527344 586.605469 514.347656 L 373.789062 567.230469 L 375.613281 509.683594 L 421.136719 500.3125 L 427.855469 501.945312 L 453.03125 493.789062 L 569.140625 469.925781 L 591.386719 465.375 C 584.289062 478.347656 584.59375 496.140625 585.769531 507.597656 Z M 597.5 429.335938 C 597.121094 429.371094 596.703125 429.410156 596.363281 429.523438 L 580.300781 434.039062 L 427.441406 476.828125 L 425.578125 418.863281 L 475.734375 402.511719 L 597.160156 362.945312 C 597.160156 362.945312 603.539062 361.542969 608.207031 366.285156 C 612.726562 370.914062 615.003906 380.015625 614.738281 392.613281 C 613.941406 427.855469 598.070312 429.296875 597.5 429.335938 Z M 597.5 429.335938 " fill-opacity="1" fill-rule="nonzero"/></g></svg>