<?xml version="1.0" encoding="UTF-8"?>
<svg xmlns="http://www.w3.org/2000/svg" xmlns:xlink="http://www.w3.org/1999/xlink" viewBox="0 0 1296 1296">
  <defs>
    <style>
      .cls-1 {
        fill: #c8d7e4;
      }

      .cls-2 {
        fill: #fff;
      }

      .cls-3 {
        fill: none;
      }

      .cls-4 {
        clip-path: url(#clippath);
      }
    </style>
    <clipPath id="clippath">
      <rect class="cls-3" x="159.16" y="159.16" width="978" height="978"/>
    </clipPath>
  </defs>
  <g id="Camada_1">
    <rect class="cls-2" width="1296" height="1296"/>
    <rect class="cls-2" width="1296" height="1296"/>
    <rect class="cls-2" width="1296" height="1296"/>
    <g class="cls-4">
      <path class="cls-1" d="M648.16,159.16c-270.07,0-489,218.93-489,489s218.93,489,489,489,489-218.93,489-489-218.93-489-489-489"/>
    </g>
  </g>
  <g id="Camada_2">
    <path class="cls-2" d="M418.82,838.78c-11.7,0-23.5-2.96-34.36-8.99-26.08-14.47-40.01-42.87-35.49-72.35l.08-.45,39.89-207.45c11.62-60.41,64.7-104.26,126.21-104.26h276.1c30.92,0,60.82,11.15,84.18,31.41,23.36,20.25,38.65,48.26,43.04,78.87l28.83,201c4.24,29.57-10,57.86-36.29,72.06s-57.75,10.61-80.16-9.15l-49.69-43.8h-263.05l-53.5,45.95c-13.2,11.34-29.42,17.16-45.82,17.16ZM372.66,761.29c-3.51,23.49,9.79,39.94,23.44,47.52,13.69,7.6,34.77,10.17,52.89-5.39l60.24-51.75h281.01l56.49,49.8c17.95,15.82,39.08,13.49,52.88,6.03s27.33-23.86,23.94-47.54l-28.83-201c-7.33-51.13-51.82-89.68-103.47-89.68h-276.1c-50.03,0-93.2,35.66-102.65,84.79l-39.84,207.22Z"/>
    <path class="cls-2" d="M567.96,604.62h-39.81v-33.88c0-6.34-5.16-11.5-11.5-11.5s-11.5,5.16-11.5,11.5v33.88h-36.16c-6.34,0-11.5,5.16-11.5,11.5s5.16,11.5,11.5,11.5h36.16v33.88c0,6.34,5.16,11.5,11.5,11.5s11.5-5.16,11.5-11.5v-33.88h39.81c6.34,0,11.5-5.16,11.5-11.5s-5.16-11.5-11.5-11.5Z"/>
    <g>
      <circle class="cls-2" cx="772.24" cy="567.36" r="20.45"/>
      <circle class="cls-2" cx="719.18" cy="614.53" r="20.45"/>
      <circle class="cls-2" cx="820.46" cy="614.53" r="20.45"/>
      <circle class="cls-2" cx="772.24" cy="664.88" r="20.45"/>
    </g>
    <path class="cls-2" d="M656.71,457.46l-22-.33c.02-1.4.68-34.74,16.96-79.52,4.95-13.61,2.09-25.35-8.74-35.9-9.12-8.89-20.42-13.38-20.53-13.42l7.93-20.52c.61.23,15.06,5.87,27.4,17.65,17.39,16.6,22.58,37.81,14.62,59.71-14.93,41.04-15.63,72.03-15.64,72.33Z"/>
  </g>
</svg>