<?xml version="1.0" encoding="UTF-8"?>
<svg xmlns="http://www.w3.org/2000/svg" version="1.1" xmlns:xlink="http://www.w3.org/1999/xlink" viewBox="0 0 1296 1296">
  <defs>
    <style>
      .cls-1 {
        fill: #c5d9c7;
      }

      .cls-2 {
        fill: #c8d7e4;
      }

      .cls-3 {
        fill: #fff;
      }

      .cls-4 {
        fill: none;
      }

      .cls-5 {
        clip-path: url(#clippath-1);
      }

      .cls-6 {
        clip-path: url(#clippath-2);
      }

      .cls-7 {
        clip-path: url(#clippath);
      }
    </style>
    <clipPath id="clippath">
      <rect class="cls-4" x="159.2" y="159.2" width="978" height="978"/>
    </clipPath>
    <clipPath id="clippath-1">
      <rect class="cls-4" x="-1184.2" y="159.2" width="978" height="978"/>
    </clipPath>
    <clipPath id="clippath-2">
      <rect class="cls-4" x="-952.7" y="578.7" width="538.7" height="351"/>
    </clipPath>
  </defs>
  <!-- Generator: Adobe Illustrator 28.6.0, SVG Export Plug-In . SVG Version: 1.2.0 Build 709)  -->
  <g>
    <g id="Camada_1">
      <rect class="cls-3" width="1296" height="1296"/>
      <rect class="cls-3" width="1296" height="1296"/>
      <rect class="cls-3" width="1296" height="1296"/>
      <g class="cls-7">
        <path class="cls-2" d="M648.2,159.2c-270.1,0-489,218.9-489,489s218.9,489,489,489,489-218.9,489-489-218.9-489-489-489"/>
      </g>
      <rect class="cls-3" x="-1343.3" width="1296" height="1296"/>
      <rect class="cls-3" x="-1343.3" width="1296" height="1296"/>
      <rect class="cls-3" x="-1343.3" width="1296" height="1296"/>
      <g class="cls-5">
        <path class="cls-1" d="M-695.2,159.2c-270.1,0-489,218.9-489,489s218.9,489,489,489,489-218.9,489-489-218.9-489-489-489"/>
      </g>
      <g class="cls-6">
        <path class="cls-3" d="M-473.6,929.6h-420.5c-32.2,0-58.4-26.2-58.4-58.4v-280.3c0-6.4,5.2-11.7,11.7-11.7H-426.9c6.4,0,11.7,5.2,11.7,11.7v280.3c0,32.2-26.2,58.4-58.4,58.4ZM-929.1,602.5v268.7c0,19.3,15.7,35,35,35h420.5c19.3,0,35-15.7,35-35v-268.7h-490.6Z"/>
      </g>
      <path class="cls-3" d="M-940.8,620.1c-5.2,0-10-3.5-11.3-8.8l-22-87c-2.3-9.3-.9-18.8,4.1-26.9,5-8.1,12.8-13.7,22.1-15.8l470.6-111.7c18.6-4.2,37.3,7.3,41.9,25.7l19.9,75.4c.8,3.1.4,6.3-1.3,9-1.6,2.7-4.3,4.6-7.4,5.4l-506.5,115.1,1.3,5.1c1.6,6.3-2.2,12.6-8.4,14.2-1,.3-2,.3-2.9.3ZM-469.5,392.4c-.8,0-1.7,0-2.5.3l-470.6,111.6c-3.2.7-5.8,2.6-7.4,5.3-1.6,2.7-2.2,5.9-1.4,9l15,59.2,495.3-112.6-16.8-63.9c-1.3-5.4-6.2-9-11.4-9Z"/>
      <path class="cls-3" d="M-894.1,696c-1.8,0-3.5-.4-5.2-1.2-5.8-2.9-8.1-9.9-5.2-15.7l46.7-93.4c2.9-5.8,9.9-8.1,15.7-5.2,5.8,2.9,8.1,9.9,5.2,15.7l-46.7,93.4c-2.1,4.1-6.2,6.5-10.5,6.5Z"/>
      <path class="cls-3" d="M-777.3,696c-1.8,0-3.5-.4-5.2-1.2-5.8-2.9-8.1-9.9-5.2-15.7l46.7-93.4c2.9-5.8,9.9-8.1,15.7-5.2,5.8,2.9,8.1,9.9,5.2,15.7l-46.7,93.4c-2,4.1-6.2,6.5-10.4,6.5Z"/>
      <path class="cls-3" d="M-660.5,696c-1.8,0-3.5-.4-5.2-1.2-5.8-2.9-8.1-9.9-5.2-15.7l46.7-93.4c2.9-5.8,9.9-8.1,15.7-5.2,5.8,2.9,8.1,9.9,5.2,15.7l-46.7,93.4c-2,4.1-6.2,6.5-10.4,6.5Z"/>
      <path class="cls-3" d="M-543.7,696c-1.8,0-3.5-.4-5.2-1.2-5.8-2.9-8.1-9.9-5.2-15.7l46.7-93.4c2.9-5.8,9.9-8.1,15.7-5.2,5.8,2.9,8.1,9.9,5.2,15.7l-46.7,93.4c-2,4.1-6.2,6.5-10.4,6.5Z"/>
      <path class="cls-3" d="M-426.9,696h-513.9c-6.4,0-11.7-5.2-11.7-11.7s5.2-11.7,11.7-11.7H-426.9c6.4,0,11.7,5.2,11.7,11.7s-5.2,11.7-11.7,11.7Z"/>
      <path class="cls-3" d="M-836.1,578.7c-3,0-6-1.1-8.3-3.4l-80.5-80.5c-4.6-4.6-4.6-12,0-16.5,4.6-4.6,12-4.6,16.5,0l80.5,80.5c4.6,4.6,4.6,12,0,16.5-2.3,2.3-5.3,3.4-8.2,3.4Z"/>
      <path class="cls-3" d="M-721.9,552.7c-3,0-6-1.1-8.3-3.4l-80.5-80.5c-4.6-4.6-4.6-12,0-16.5,4.6-4.6,12-4.6,16.5,0l80.5,80.5c4.6,4.6,4.6,12,0,16.5-2.3,2.3-5.3,3.4-8.3,3.4Z"/>
      <path class="cls-3" d="M-607.6,526.8c-3,0-6-1.1-8.3-3.4l-80.4-80.5c-4.6-4.6-4.6-12,0-16.5,4.6-4.6,12-4.6,16.5,0l80.4,80.5c4.6,4.6,4.6,12,0,16.5-2.3,2.3-5.3,3.4-8.3,3.4Z"/>
      <path class="cls-3" d="M-493.5,500.8c-3,0-6-1.1-8.3-3.4l-80.4-80.5c-4.6-4.6-4.6-12,0-16.5s12-4.6,16.5,0l80.4,80.5c4.6,4.6,4.6,12,0,16.5-2.3,2.3-5.3,3.4-8.3,3.4Z"/>
    </g>
    <g id="Camada_2">
      <image width="104" height="86" transform="translate(162.9 266.5) scale(9.1)" xlink:href="movie-1.png"/>
      <path class="cls-3" d="M418.8,838.8c-11.7,0-23.5-3-34.4-9-26.1-14.5-40-42.9-35.5-72.4v-.4c0,0,40-207.5,40-207.5,11.6-60.4,64.7-104.3,126.2-104.3h276.1c30.9,0,60.8,11.2,84.2,31.4,23.4,20.3,38.7,48.3,43,78.9l28.8,201c4.2,29.6-10,57.9-36.3,72.1s-57.7,10.6-80.2-9.1l-49.7-43.8h-263l-53.5,46c-13.2,11.3-29.4,17.2-45.8,17.2ZM372.7,761.3c-3.5,23.5,9.8,39.9,23.4,47.5,13.7,7.6,34.8,10.2,52.9-5.4l60.2-51.7h281l56.5,49.8c17.9,15.8,39.1,13.5,52.9,6s27.3-23.9,23.9-47.5l-28.8-201c-7.3-51.1-51.8-89.7-103.5-89.7h-276.1c-50,0-93.2,35.7-102.6,84.8l-39.8,207.2Z"/>
      <path class="cls-3" d="M568,604.6h-39.8v-33.9c0-6.3-5.2-11.5-11.5-11.5s-11.5,5.2-11.5,11.5v33.9h-36.2c-6.3,0-11.5,5.2-11.5,11.5s5.2,11.5,11.5,11.5h36.2v33.9c0,6.3,5.2,11.5,11.5,11.5s11.5-5.2,11.5-11.5v-33.9h39.8c6.3,0,11.5-5.2,11.5-11.5s-5.2-11.5-11.5-11.5Z"/>
      <g>
        <circle class="cls-3" cx="772.2" cy="567.4" r="20.5"/>
        <circle class="cls-3" cx="719.2" cy="614.5" r="20.5"/>
        <circle class="cls-3" cx="820.5" cy="614.5" r="20.5"/>
        <circle class="cls-3" cx="772.2" cy="664.9" r="20.5"/>
      </g>
      <path class="cls-3" d="M656.7,457.5l-22-.3c0-1.4.7-34.7,17-79.5,4.9-13.6,2.1-25.3-8.7-35.9-9.1-8.9-20.4-13.4-20.5-13.4l7.9-20.5c.6.2,15.1,5.9,27.4,17.6,17.4,16.6,22.6,37.8,14.6,59.7-14.9,41-15.6,72-15.6,72.3Z"/>
    </g>
  </g>
</svg>